#!OML:ASF E:\pregnant2\Project 1\Capture day 1\Session 1\pregnant2.ASF
:FULLY-SPECIFIED
:DEGREES
1006
root 5.93391 21.7969 -10.6057 26.3956 4.11848 3.78155
lowerback -7.05127 -3.50053 -8.67081
upperback -11.7395 -4.46471 1.83579
thorax -7.80439 -1.43551 6.76581
lowerneck -8.72125 -2.25707 -8.31018
upperneck 51.972 0.323909 -2.73787
head 24.5549 -1.95644 0.0711757
rclavicle 1.81733e-014 -3.57812e-015
rhumerus -60.7256 11.0274 -76.7268
rradius 45.598
rwrist 4.62317
rhand -11.1222 -12.527
rfingers 7.12502
rthumb 14.9027 -41.9709
lclavicle 1.81733e-014 -3.57812e-015
lhumerus -52.7999 1.30143 81.6466
lradius 41.6407
lwrist 1.46021
lhand -11.5048 27.4224
lfingers 7.12502
lthumb 14.5342 56.8933
rfemur -63.5398 3.20429 8.91181
rtibia 33.2516
rfoot -0.111217 -28.0392
rtoes 15.0416
lfemur -40.7029 -1.32133 -33.8487
ltibia 48.8893
lfoot -23.8807 14.6666
ltoes -23.2642
1007
root 5.92498 21.7464 -10.5388 26.4899 4.15531 3.84406
lowerback -7.16458 -3.50605 -8.73356
upperback -11.7528 -4.46065 1.81719
thorax -7.75469 -1.4314 6.77402
lowerneck -8.81405 -2.21923 -8.28081
upperneck 52.0136 0.420047 -2.77159
head 24.642 -1.91922 0.0633672
rclavicle -1.28589e-015 -1.98785e-016
rhumerus -60.6652 11.1234 -76.7584
rradius 45.768
rwrist 5.08048
rhand -10.5314 -12.9969
rfingers 7.12502
rthumb 15.4719 -42.3978
lclavicle -1.28589e-015 -1.98785e-016
lhumerus -52.7949 1.45307 81.3956
lradius 41.6281
lwrist 1.42579
lhand -11.4283 27.8722
lfingers 7.12502
lthumb 14.6079 57.3378
rfemur -63.4342 3.6288 8.45317
rtibia 32.8012
rfoot -0.427004 -28.5655
rtoes 15.9421
lfemur -41.0663 -0.846502 -34.0132
ltibia 49.9189
lfoot -24.3687 14.322
ltoes -23.9063
1008
root 5.91559 21.6957 -10.4706 26.5027 4.27779 3.90063
lowerback -7.17832 -3.53081 -8.76489
upperback -11.7467 -4.4918 1.80288
thorax -7.7339 -1.44633 6.77374
lowerneck -8.88465 -2.19384 -8.29487
upperneck 52.0313 0.483351 -2.76523
head 24.6936 -1.89834 0.0820794
rclavicle 2.34193e-014 -9.74045e-015
rhumerus -60.6645 11.2826 -76.9174
rradius 45.969
rwrist 4.95995
rhand -10.7011 -12.7624
rfingers 7.12502
rthumb 15.3084 -42.1758
lclavicle 2.34193e-014 -9.74045e-015
lhumerus -52.7663 1.6092 81.1462
lradius 41.5199
lwrist 1.51362
lhand -11.9831 27.0696
lfingers 7.12502
lthumb 14.0733 56.5731
rfemur -63.2109 4.05119 8.0344
rtibia 32.4191
rfoot -0.553058 -29.0575
rtoes 16.4172
lfemur -41.3566 -0.423937 -34.1257
ltibia 50.9815
lfoot -24.8289 13.9237
ltoes -24.366
1009
root 5.90632 21.6465 -10.3977 26.4211 4.4809 4.05213
lowerback -7.1681 -3.5856 -8.89895
upperback -11.6703 -4.56097 1.77505
thorax -7.63699 -1.4791 6.81315
lowerneck -8.96296 -2.16985 -8.28625
upperneck 52.0128 0.537431 -2.75994
head 24.7055 -1.87431 0.0958436
rclavicle 3.45792e-014 1.2921e-014
rhumerus -60.6529 11.4338 -77.0634
rradius 46.2145
rwrist 4.96476
rhand -10.7678 -12.8201
rfingers 7.12502
rthumb 15.2441 -42.2384
lclavicle 3.45792e-014 1.2921e-014
lhumerus -52.6453 1.88477 80.7957
lradius 41.4194
lwrist 1.13984
lhand -12.4149 26.2316
lfingers 7.12502
lthumb 13.6572 55.7635
rfemur -62.8304 4.42157 7.54967
rtibia 32.1261
rfoot -0.923994 -29.5831
rtoes 17.6482
lfemur -41.4388 -0.153673 -34.2628
ltibia 52.0233
lfoot -25.2813 13.7151
ltoes -25.1643
1010
root 5.8958 21.5961 -10.3255 26.377 4.69895 4.16471
lowerback -7.0586 -3.64672 -9.01969
upperback -11.782 -4.65646 1.77758
thorax -7.80401 -1.5032 6.89349
lowerneck -8.71465 -2.11763 -8.24231
upperneck 52.0581 0.623125 -2.83445
head 24.6388 -1.83999 0.0636485
rclavicle 9.44227e-015 -4.37326e-015
rhumerus -60.9149 11.6666 -77.2262
rradius 46.3606
rwrist 4.98161
rhand -10.7895 -12.7102
rfingers 7.12502
rthumb 15.2232 -42.1301
lclavicle 9.44227e-015 -4.37326e-015
lhumerus -52.9071 2.08452 80.5261
lradius 41.3317
lwrist 1.1729
lhand -11.8459 27.3938
lfingers 7.12502
lthumb 14.2055 56.888
rfemur -62.4968 4.73915 7.20498
rtibia 31.888
rfoot -0.987859 -30.0659
rtoes 18.5547
lfemur -41.6084 0.00866942 -34.3268
ltibia 53.0869
lfoot -25.6525 13.5553
ltoes -25.7881
1011
root 5.8835 21.5422 -10.2541 26.3359 4.89848 4.28022
lowerback -7.04204 -3.68836 -9.04867
upperback -11.6639 -4.70946 1.73704
thorax -7.67072 -1.54088 6.85894
lowerneck -9.08042 -2.08783 -8.23546
upperneck 52.0665 0.727749 -2.81952
head 24.816 -1.80052 0.0887637
rclavicle 2.17265e-014 5.36719e-015
rhumerus -60.6655 11.7512 -77.3498
rradius 46.4505
rwrist 4.96536
rhand -10.7257 -13.121
rfingers 7.12502
rthumb 15.2847 -42.5362
lclavicle 2.17265e-014 5.36719e-015
lhumerus -52.6484 2.34815 80.2057
lradius 41.2772
lwrist 1.22844
lhand -11.3243 28.2815
lfingers 7.12502
lthumb 14.708 57.7397
rfemur -62.1677 5.01754 6.94629
rtibia 31.7219
rfoot -1.1066 -30.5167
rtoes 19.5985
lfemur -41.7814 0.198773 -34.4016
ltibia 54.1326
lfoot -25.9569 13.4966
ltoes -26.7447
1012
root 5.87148 21.4896 -10.1783 26.2927 5.01042 4.34929
lowerback -7.09766 -3.72361 -9.19007
upperback -11.7124 -4.74947 1.74261
thorax -7.6808 -1.54653 6.94125
lowerneck -8.81261 -2.03121 -8.21953
upperneck 52.0577 0.800655 -2.84546
head 24.6756 -1.76908 0.0910006
rclavicle -1.27968e-015 -1.15295e-014
rhumerus -60.864 11.9799 -77.532
rradius 46.5687
rwrist 4.91462
rhand -11.0363 -12.4677
rfingers 7.12502
rthumb 14.9855 -41.9055
lclavicle -1.27968e-015 -1.15295e-014
lhumerus -52.8377 2.5668 79.9332
lradius 41.2005
lwrist 1.32469
lhand -11.4333 27.9941
lfingers 7.12502
lthumb 14.6031 57.46
rfemur -61.8183 5.30536 6.82433
rtibia 31.5774
rfoot -1.25406 -30.9251
rtoes 20.8013
lfemur -41.9454 0.524967 -34.4498
ltibia 55.2055
lfoot -26.4535 13.1651
ltoes -26.998
1013
root 5.85824 21.4345 -10.1016 26.223 5.15019 4.42267
lowerback -6.97842 -3.75678 -9.28492
upperback -11.8012 -4.80916 1.73954
thorax -7.83513 -1.55625 7.00213
lowerneck -8.65536 -1.96147 -8.1953
upperneck 52.1011 0.908933 -2.8654
head 24.6472 -1.72562 0.0983016
rclavicle -5.57218e-015 1.5704e-014
rhumerus -61.133 12.234 -77.7548
rradius 46.7444
rwrist 4.92775
rhand -10.8834 -12.6028
rfingers 7.12502
rthumb 15.1328 -42.0296
lclavicle -5.57218e-015 1.5704e-014
lhumerus -53.09 2.83578 79.6058
lradius 41.1209
lwrist 1.29942
lhand -12.1201 26.9862
lfingers 7.12502
lthumb 13.9412 56.4988
rfemur -61.4284 5.50032 6.84362
rtibia 31.4989
rfoot -1.30207 -31.3037
rtoes 21.5749
lfemur -42.0665 0.877758 -34.492
ltibia 56.2536
lfoot -26.8933 12.9408
ltoes -27.6767
1014
root 5.84763 21.3778 -10.0217 26.1352 5.21883 4.48433
lowerback -7.05038 -3.75743 -9.27745
upperback -11.6416 -4.79669 1.68824
thorax -7.61866 -1.5713 6.92923
lowerneck -8.98497 -1.91624 -8.18249
upperneck 52.0569 1.02163 -2.83547
head 24.7434 -1.67869 0.136462
rclavicle -3.05694e-014 -1.39149e-015
rhumerus -60.7842 12.319 -77.859
rradius 46.7759
rwrist 4.84551
rhand -10.8778 -12.9818
rfingers 7.12502
rthumb 15.1382 -42.4081
lclavicle -3.05694e-014 -1.39149e-015
lhumerus -52.8194 3.17704 79.2556
lradius 40.921
lwrist 1.29611
lhand -11.965 27.3996
lfingers 7.12502
lthumb 14.0907 56.9019
rfemur -60.9917 5.49796 7.12694
rtibia 31.4566
rfoot -0.748735 -31.3408
rtoes 21.3534
lfemur -42.1529 1.2334 -34.5538
ltibia 57.2816
lfoot -27.3198 12.8355
ltoes -28.474
1015
root 5.8327 21.3186 -9.94122 26.0614 5.36223 4.60748
lowerback -7.11344 -3.80382 -9.48782
upperback -11.6226 -4.84607 1.68974
thorax -7.54311 -1.58365 7.04116
lowerneck -8.84522 -1.86818 -8.13547
upperneck 52.0272 1.106 -2.89649
head 24.64 -1.63969 0.113364
rclavicle 2.30714e-014 9.14409e-015
rhumerus -60.9171 12.519 -78.0011
rradius 46.9963
rwrist 4.79127
rhand -10.9225 -12.6478
rfingers 7.12502
rthumb 15.0951 -42.0774
lclavicle 2.30714e-014 9.14409e-015
lhumerus -52.9025 3.38609 79.0425
lradius 40.8119
lwrist 1.43635
lhand -12.1567 27.3912
lfingers 7.12502
lthumb 13.906 56.9062
rfemur -60.5451 5.45149 7.38738
rtibia 31.4746
rfoot -0.472813 -31.4571
rtoes 21.607
lfemur -42.1931 1.52422 -34.601
ltibia 58.2612
lfoot -27.8299 12.591
ltoes -28.9028
1016
root 5.81732 21.2578 -9.86041 26.004 5.4332 4.71733
lowerback -7.06682 -3.83371 -9.62772
upperback -11.6666 -4.89211 1.66148
thorax -7.60736 -1.59106 7.09279
lowerneck -8.75315 -1.8078 -8.15687
upperneck 52.0409 1.19266 -2.86153
head 24.6077 -1.60772 0.157643
rclavicle -3.2054e-014 -2.04748e-014
rhumerus -60.9915 12.7391 -78.1915
rradius 47.0446
rwrist 4.81539
rhand -10.7686 -13.2809
rfingers 7.12502
rthumb 15.2434 -42.6993
lclavicle -3.2054e-014 -2.04748e-014
lhumerus -53.0478 3.70751 78.6999
lradius 40.6306
lwrist 1.47927
lhand -12.378 27.1562
lfingers 7.12502
lthumb 13.6927 56.6857
rfemur -60.1254 5.39632 7.70329
rtibia 31.5419
rfoot -0.260864 -31.5083
rtoes 22.1191
lfemur -42.2099 1.80683 -34.6303
ltibia 59.2017
lfoot -28.4129 12.326
ltoes -29.0795
